<svg width="128" height="128" viewBox="0 0 14 14" fill="none" xmlns="http://www.w3.org/2000/svg">
<rect width="14" height="14" rx="3" fill="#242424"/>
<path d="M6.4 10.331V12L8 9.5L9.3511 7.81113C9.77115 7.28606 10 6.63366 10 5.96125C10 4.3258 8.6742 3 7.03875 3H7H6.59109C5.16007 3 4 4.16007 4 5.59109C4 6.17946 4.20024 6.7503 4.56779 7.20974L4.6 7.25C4.9884 7.7355 5.2 8.33873 5.2 8.96047V10L5.32055 9.89954C6.00453 9.32956 6.4 8.48521 6.4 7.59488V6.5V6.41117C6.4 5.66608 7.27757 5.26787 7.8383 5.75851C8.16121 6.04105 8.22896 6.51726 7.99767 6.87865L7.6 7.5L6.82752 8.78746C6.54777 9.25371 6.4 9.78722 6.4 10.331Z" fill="url(#paint0_linear_44_60)"/>
<path d="M7 12L8.47319 10.0357C8.49104 10.0119 8.51056 9.98944 8.5316 9.9684C8.97148 9.52852 9.71474 9.92629 9.59274 10.5363L9.57045 10.6477C9.5265 10.8675 9.37454 11.0502 9.16646 11.1334L7 12Z" fill="url(#paint1_linear_44_60)"/>
<defs>
<linearGradient id="paint0_linear_44_60" x1="7" y1="3" x2="7" y2="12" gradientUnits="userSpaceOnUse">
<stop stop-color="#FF9900"/>
<stop offset="1" stop-color="#FF00C7"/>
</linearGradient>
<linearGradient id="paint1_linear_44_60" x1="7" y1="3" x2="7" y2="12" gradientUnits="userSpaceOnUse">
<stop stop-color="#FF9900"/>
<stop offset="1" stop-color="#FF00C7"/>
</linearGradient>
</defs>
</svg>
